<?xml version="1.0" standalone="no"?>
<!DOCTYPE svg PUBLIC "-//W3C//DTD SVG 20010904//EN"
 "http://www.w3.org/TR/2001/REC-SVG-20010904/DTD/svg10.dtd">
<svg version="1.0" xmlns="http://www.w3.org/2000/svg"
 width="1280.000000pt" height="1094.000000pt" viewBox="0 0 1280.000000 1094.000000"
 preserveAspectRatio="xMidYMid meet">
<g transform="translate(0.000000,1094.000000) scale(0.100000,-0.100000)"
fill="#000000" stroke="none">
<path d="M8508 10877 c-115 -140 -291 -490 -423 -842 -102 -272 -132 -433
-155 -830 -20 -357 -14 -433 57 -650 102 -313 187 -519 233 -560 21 -19 22
-19 35 -2 27 37 53 261 135 1132 69 742 79 814 113 802 13 -4 13 -11 -3 -692
-12 -491 -12 -1096 -1 -1114 11 -17 8 -24 94 189 85 209 158 429 181 540 42
208 68 596 70 1050 1 366 5 339 -84 570 -87 225 -183 428 -209 444 -5 3 -24
-13 -43 -37z"/>
<path d="M11275 9680 c-226 -19 -433 -66 -604 -136 -170 -70 -362 -188 -469
-288 -106 -99 -288 -330 -333 -422 -46 -94 -69 -188 -52 -205 15 -15 2 -18
873 266 393 129 768 250 832 269 113 34 251 66 283 66 33 0 12 -21 -52 -51
-265 -121 -561 -247 -883 -374 -605 -238 -843 -335 -882 -361 -45 -29 -53 -70
-15 -79 34 -7 259 -24 492 -36 348 -18 522 1 757 85 316 113 519 213 723 357
316 222 530 417 679 618 82 111 156 226 156 244 0 29 -1251 68 -1505 47z"/>
<path d="M6458 9523 c-38 -41 -151 -220 -213 -336 -139 -262 -219 -537 -271
-922 -22 -164 -25 -548 -6 -680 65 -441 158 -741 358 -1154 36 -73 67 -131 70
-128 6 5 14 157 44 822 47 1034 76 1524 90 1539 5 5 13 -8 19 -30 19 -74 30
-219 61 -819 6 -110 19 -375 30 -590 29 -558 55 -874 74 -893 18 -17 71 73
119 203 52 137 135 412 162 530 78 350 104 985 51 1257 -73 369 -240 797 -409
1048 -39 58 -139 180 -147 180 -3 0 -18 -12 -32 -27z"/>
<path d="M9353 8355 c-18 -7 -58 -31 -90 -53 -32 -22 -148 -94 -258 -162 -411
-253 -466 -295 -849 -646 -132 -120 -267 -241 -300 -267 -34 -26 -78 -61 -98
-78 -21 -16 -56 -62 -79 -102 -78 -138 -237 -348 -449 -597 -59 -69 -129 -154
-157 -190 -67 -86 -274 -382 -366 -523 -92 -140 -197 -271 -363 -453 -189
-206 -361 -397 -446 -494 -86 -99 -260 -259 -438 -403 -69 -56 -183 -151 -255
-210 -71 -60 -186 -147 -255 -193 -157 -104 -611 -363 -795 -454 -189 -92
-661 -297 -815 -353 -232 -84 -544 -166 -930 -245 -561 -116 -918 -158 -1670
-197 -413 -21 -639 -52 -693 -95 -35 -27 -53 -116 -33 -163 24 -57 51 -62 361
-61 539 2 1284 71 1821 169 341 62 876 197 1154 291 371 126 803 324 1230 564
279 158 293 166 440 275 69 51 199 143 290 205 190 130 250 178 450 359 80 73
219 196 310 275 91 79 187 170 215 202 27 32 124 147 216 254 91 108 210 256
265 330 54 74 154 202 222 283 68 82 171 214 229 295 58 81 138 190 178 242
40 52 105 142 145 200 178 257 341 455 612 745 274 293 372 387 533 510 255
196 413 293 670 412 88 41 166 80 173 87 29 29 -39 220 -88 246 -25 13 -48 12
-87 -5z"/>
<path d="M4215 8062 c-21 -42 -89 -151 -151 -242 -281 -417 -440 -754 -503
-1070 -77 -384 -94 -901 -38 -1170 91 -436 177 -708 313 -985 93 -192 144
-248 160 -177 3 15 8 34 10 42 16 68 47 403 134 1485 47 578 114 1273 125
1283 18 18 16 90 45 -1938 5 -410 10 -815 10 -900 l1 -155 23 29 c37 44 233
394 318 566 42 85 93 200 113 254 131 354 225 1050 186 1372 -37 296 -97 592
-162 791 -75 232 -279 688 -347 778 -37 49 -141 115 -180 115 -11 0 -31 -28
-57 -78z"/>
<path d="M9241 7589 c-96 -11 -291 -58 -291 -70 0 -28 359 -168 905 -353 481
-162 825 -292 833 -313 5 -18 -135 -17 -232 1 -41 8 -259 62 -483 120 -353 91
-544 137 -940 225 -83 18 -83 18 -83 -2 0 -24 138 -163 260 -260 249 -201 571
-367 824 -427 230 -55 503 -75 1021 -75 365 0 449 3 555 18 69 10 127 20 129
22 6 6 -19 137 -30 157 -6 10 -41 39 -79 63 -48 31 -79 60 -104 99 -87 130
-412 348 -800 537 -302 147 -540 217 -853 254 -139 16 -505 19 -632 4z"/>
<path d="M1745 7570 c-12 -4 -39 -32 -62 -62 -23 -30 -108 -131 -190 -224
-219 -250 -288 -347 -434 -605 -185 -328 -301 -637 -338 -899 -32 -221 -51
-557 -52 -912 -1 -281 -2 -276 97 -627 66 -233 207 -622 269 -740 12 -24 13
-23 29 32 33 115 76 308 115 522 37 202 67 379 225 1345 94 575 177 1026 195
1058 5 8 11 10 14 5 4 -6 -11 -282 -33 -614 -32 -493 -91 -1428 -149 -2384 -5
-82 -8 -151 -6 -153 5 -6 165 180 231 268 153 206 344 564 417 785 128 388
173 666 198 1210 18 410 12 481 -60 765 -117 458 -224 778 -405 1203 -17 38
-26 42 -61 27z"/>
<path d="M8245 5814 c-22 -2 -89 -9 -150 -14 -153 -15 -287 -44 -445 -96 -137
-45 -214 -81 -212 -99 1 -15 72 -34 537 -146 810 -195 1384 -339 1477 -370
176 -58 148 -79 -87 -61 -180 14 -292 29 -935 132 -808 129 -947 146 -984 118
-17 -14 -15 -18 34 -74 29 -32 67 -81 85 -109 38 -59 61 -80 95 -90 14 -4 54
-31 90 -60 96 -78 171 -122 305 -183 298 -133 558 -194 960 -223 330 -23 750
25 1190 138 145 37 355 110 355 123 0 13 -169 162 -330 290 -509 405 -1045
644 -1595 709 -95 11 -333 21 -390 15z"/>
<path d="M5700 3444 c-156 -11 -300 -27 -430 -49 -162 -28 -220 -42 -220 -54
0 -11 227 -89 1100 -376 1298 -428 1450 -481 1450 -504 0 -16 -32 -14 -251 19
-254 38 -346 57 -659 135 -248 62 -770 186 -1095 260 -368 84 -625 129 -625
110 0 -45 494 -560 615 -641 138 -93 338 -186 639 -298 298 -111 495 -147 902
-166 471 -22 858 25 1219 145 160 54 268 98 272 111 7 21 -429 437 -587 560
-186 145 -505 371 -592 419 -144 78 -534 228 -721 276 -157 40 -277 50 -627
53 -184 2 -360 2 -390 0z"/>
<path d="M1776 2189 c-63 -9 -83 -20 -72 -38 13 -21 121 -88 371 -231 138 -78
324 -187 415 -240 91 -54 287 -167 435 -250 149 -84 325 -188 393 -232 68 -44
272 -165 454 -270 183 -104 364 -212 403 -239 86 -59 155 -117 155 -130 0 -17
-69 -9 -142 17 -98 36 -481 212 -883 406 -649 315 -1613 759 -1684 776 -62 15
-74 8 -67 -39 16 -97 88 -221 249 -424 142 -179 180 -220 228 -247 25 -14 42
-34 52 -59 11 -27 21 -39 36 -39 21 0 51 -34 51 -60 0 -8 22 -27 48 -41 26
-15 109 -76 184 -138 187 -152 295 -223 483 -318 285 -144 581 -259 762 -297
169 -35 465 -59 958 -77 160 -5 359 -13 442 -16 109 -4 166 -2 198 7 25 7 45
14 45 17 0 21 -46 99 -129 217 -54 77 -127 188 -163 246 -54 88 -69 107 -98
116 -26 8 -46 27 -75 70 -54 79 -470 495 -570 570 -59 44 -83 69 -91 93 -8 25
-23 40 -55 57 -24 12 -129 88 -234 169 -248 191 -308 230 -505 329 -290 145
-648 243 -1065 291 -139 16 -431 18 -529 4z"/>
</g>
</svg>
